<?xml version="1.0" encoding="UTF-8" standalone="no"?><!DOCTYPE svg PUBLIC "-//W3C//DTD SVG 1.1//EN" "http://www.w3.org/Graphics/SVG/1.1/DTD/svg11.dtd"><svg width="100%" height="100%" viewBox="0 0 728 199" version="1.1" xmlns="http://www.w3.org/2000/svg" xmlns:xlink="http://www.w3.org/1999/xlink" xml:space="preserve" xmlns:serif="http://www.serif.com/" style="fill-rule:evenodd;clip-rule:evenodd;stroke-linejoin:round;stroke-miterlimit:2;"><g id="Capa-1" serif:id="Capa 1"><g><path d="M574.812,91.699c2.33,1.865 4.637,3.799 6.921,5.803c2.283,2.004 4.334,4.194 6.152,6.571c1.817,2.377 3.285,5.034 4.404,7.97c1.118,2.936 1.678,6.269 1.678,9.997c0,2.796 -0.536,5.43 -1.608,7.9c-1.072,2.47 -2.517,4.614 -4.335,6.432c-1.817,1.817 -3.938,3.262 -6.361,4.334c-2.424,1.072 -5.034,1.608 -7.83,1.608c-2.797,0 -5.43,-0.536 -7.9,-1.608c-2.47,-1.072 -4.614,-2.517 -6.432,-4.334c-1.817,-1.818 -3.262,-3.962 -4.334,-6.432c-1.072,-2.47 -1.608,-5.104 -1.608,-7.9l4.614,0c0,2.144 0.42,4.171 1.258,6.082c0.839,1.911 1.958,3.566 3.356,4.964c1.398,1.398 3.053,2.517 4.964,3.355c1.911,0.839 3.938,1.259 6.082,1.259c2.144,0 4.148,-0.42 6.012,-1.259c1.864,-0.838 3.496,-1.957 4.894,-3.355c1.398,-1.398 2.516,-3.053 3.355,-4.964c0.839,-1.911 1.259,-3.938 1.259,-6.082c0,-3.169 -0.49,-6.012 -1.468,-8.529c-0.979,-2.517 -2.284,-4.824 -3.915,-6.921c-1.632,-2.097 -3.496,-4.055 -5.593,-5.872c-2.097,-1.818 -4.265,-3.612 -6.502,-5.383c-2.237,-1.771 -4.451,-3.612 -6.641,-5.523c-2.191,-1.911 -4.148,-3.985 -5.872,-6.222c-1.725,-2.237 -3.123,-4.707 -4.195,-7.41c-1.072,-2.704 -1.608,-5.826 -1.608,-9.368c0,-2.797 0.536,-5.43 1.608,-7.9c1.072,-2.47 2.517,-4.614 4.334,-6.432c1.818,-1.817 3.962,-3.262 6.432,-4.334c2.47,-1.072 5.103,-1.608 7.9,-1.608c2.796,0 5.406,0.536 7.83,1.608c2.423,1.072 4.544,2.517 6.361,4.334c1.818,1.818 3.263,3.962 4.335,6.432c1.072,2.47 1.608,5.103 1.608,7.9l-4.614,0c0,-2.144 -0.42,-4.148 -1.259,-6.013c-0.839,-1.864 -1.957,-3.495 -3.355,-4.893c-1.398,-1.398 -3.03,-2.517 -4.894,-3.356c-1.864,-0.839 -3.868,-1.258 -6.012,-1.258c-2.144,0 -4.171,0.419 -6.082,1.258c-1.911,0.839 -3.566,1.958 -4.964,3.356c-1.398,1.398 -2.517,3.029 -3.356,4.893c-0.838,1.865 -1.258,3.869 -1.258,6.013c0,2.982 0.466,5.616 1.398,7.899c0.932,2.284 2.167,4.405 3.706,6.362c1.538,1.958 3.309,3.799 5.313,5.523c2.004,1.724 4.078,3.426 6.222,5.103Z" style="fill:#fff;fill-rule:nonzero;"/><path d="M640.526,51.851l-32.158,0l0,35.654l26.426,0l0,4.614l-26.426,0l0,44.882l32.158,0l0,4.614l-32.158,0l-4.614,0l0,-94.518l36.772,0l0,4.754Z" style="fill:#fff;fill-rule:nonzero;"/><path d="M663.596,101.766l-11.465,0l0,39.849l-4.614,0l0,-39.849l0,-4.614l0,-45.441l0,-4.614l17.058,0c2.797,0 5.43,0.513 7.9,1.538c2.47,1.026 4.614,2.447 6.432,4.265c1.817,1.817 3.262,3.938 4.334,6.361c1.072,2.424 1.608,5.034 1.608,7.83l0,14.681c0,2.424 -0.42,4.708 -1.258,6.851c-0.839,2.144 -2.004,4.102 -3.496,5.873c-1.491,1.771 -3.216,3.239 -5.173,4.404c-1.958,1.165 -4.102,1.981 -6.432,2.447l17.058,40.268l-5.033,0l-16.919,-39.849Zm-11.465,-4.614l12.444,0c2.144,0 4.148,-0.396 6.012,-1.188c1.865,-0.792 3.496,-1.888 4.894,-3.286c1.398,-1.398 2.517,-3.029 3.356,-4.894c0.839,-1.864 1.258,-3.868 1.258,-6.012l0,-12.164l0,-2.517c0,-2.05 -0.419,-4.008 -1.258,-5.872c-0.839,-1.864 -1.958,-3.496 -3.356,-4.894c-1.398,-1.398 -3.029,-2.516 -4.894,-3.355c-1.864,-0.839 -3.868,-1.259 -6.012,-1.259l-12.444,0l0,45.441Z" style="fill:#fff;fill-rule:nonzero;"/></g><g><path d="M36.057,66.771c1.74,0 3.351,0.333 4.83,1.001c1.48,0.667 2.786,1.566 3.917,2.698c1.132,1.131 2.017,2.452 2.655,3.96c0.638,1.509 0.957,3.105 0.957,4.787l0,12.012c0,1.683 -0.304,3.249 -0.914,4.7c-0.609,1.451 -1.45,2.727 -2.524,3.83c-1.073,1.102 -2.321,2.002 -3.742,2.698c-1.422,0.696 -2.945,1.103 -4.57,1.219l-0.435,0l-0.348,0l-8.443,0l0,21.934l-2.873,0l0,-58.839l11.49,0Zm9.487,12.446c0,-1.276 -0.261,-2.495 -0.783,-3.655c-0.523,-1.161 -1.219,-2.176 -2.089,-3.047c-0.871,-0.87 -1.886,-1.566 -3.047,-2.089c-1.16,-0.522 -2.408,-0.783 -3.742,-0.783l-8.443,0l0,31.16l8.617,0c1.334,0 2.582,-0.261 3.742,-0.783c1.161,-0.522 2.162,-1.219 3.003,-2.089c0.842,-0.87 1.509,-1.871 2.002,-3.003c0.493,-1.131 0.74,-2.364 0.74,-3.699l0,-12.012Z" style="fill:#fff;fill-rule:nonzero;"/><path d="M67.13,126.045c-1.741,0 -3.38,-0.334 -4.918,-1.001c-1.537,-0.667 -2.872,-1.567 -4.004,-2.698c-1.131,-1.132 -2.031,-2.466 -2.698,-4.004c-0.667,-1.538 -1.001,-3.177 -1.001,-4.918l0,-34.381c0,-1.74 0.334,-3.38 1.001,-4.917c0.667,-1.538 1.567,-2.873 2.698,-4.004c1.132,-1.132 2.467,-2.031 4.004,-2.698c1.538,-0.668 3.177,-1.001 4.918,-1.001c1.741,0 3.366,0.333 4.874,1.001c1.509,0.667 2.829,1.566 3.961,2.698c1.131,1.131 2.031,2.466 2.698,4.004c0.667,1.537 1.001,3.177 1.001,4.917l0,34.381c0,1.741 -0.334,3.38 -1.001,4.918c-0.667,1.538 -1.567,2.872 -2.698,4.004c-1.132,1.131 -2.452,2.031 -3.961,2.698c-1.508,0.667 -3.133,1.001 -4.874,1.001Zm0,-56.663c-1.335,0 -2.597,0.261 -3.786,0.783c-1.19,0.523 -2.22,1.219 -3.09,2.089c-0.871,0.871 -1.567,1.886 -2.089,3.047c-0.522,1.16 -0.783,2.408 -0.783,3.742l0,34.381c0,1.335 0.261,2.597 0.783,3.786c0.522,1.19 1.218,2.22 2.089,3.09c0.87,0.871 1.9,1.567 3.09,2.089c1.189,0.523 2.451,0.784 3.786,0.784c1.335,0 2.582,-0.261 3.743,-0.784c1.16,-0.522 2.176,-1.218 3.046,-2.089c0.871,-0.87 1.567,-1.9 2.089,-3.09c0.522,-1.189 0.783,-2.451 0.783,-3.786l0,-34.381c0,-1.334 -0.261,-2.582 -0.783,-3.742c-0.522,-1.161 -1.218,-2.176 -2.089,-3.047c-0.87,-0.87 -1.886,-1.566 -3.046,-2.089c-1.161,-0.522 -2.408,-0.783 -3.743,-0.783Z" style="fill:#fff;fill-rule:nonzero;"/><path d="M132.671,66.771l2.96,0l-12.708,58.839l-4.352,0l-7.921,-52.485l-7.834,52.485l-4.352,0l-12.707,-58.839l2.959,0l11.837,54.574l8.182,-54.574l3.917,0l8.182,54.574l11.837,-54.574Z" style="fill:#fff;fill-rule:nonzero;"/><path d="M162.874,69.73l-20.019,0l0,22.195l16.45,0l0,2.873l-16.45,0l0,27.94l20.019,0l0,2.872l-20.019,0l-2.872,0l0,-58.839l22.891,0l0,2.959Z" style="fill:#fff;fill-rule:nonzero;"/><path d="M177.236,100.803l-7.138,0l0,24.807l-2.872,0l0,-24.807l0,-2.872l0,-28.288l0,-2.872l10.619,0c1.741,0 3.38,0.319 4.918,0.957c1.537,0.638 2.872,1.523 4.004,2.655c1.131,1.131 2.031,2.452 2.698,3.96c0.667,1.509 1.001,3.134 1.001,4.874l0,9.14c0,1.508 -0.261,2.93 -0.784,4.265c-0.522,1.334 -1.247,2.553 -2.176,3.655c-0.928,1.103 -2.001,2.017 -3.22,2.742c-1.219,0.725 -2.553,1.233 -4.004,1.523l10.619,25.068l-3.133,0l-10.532,-24.807Zm-7.138,-2.872l7.747,0c1.335,0 2.582,-0.247 3.743,-0.74c1.16,-0.493 2.176,-1.175 3.046,-2.045c0.871,-0.871 1.567,-1.886 2.089,-3.047c0.522,-1.16 0.783,-2.408 0.783,-3.742l0,-7.573l0,-1.567c0,-1.276 -0.261,-2.495 -0.783,-3.655c-0.522,-1.161 -1.218,-2.176 -2.089,-3.047c-0.87,-0.87 -1.886,-1.566 -3.046,-2.089c-1.161,-0.522 -2.408,-0.783 -3.743,-0.783l-7.747,0l0,28.288Z" style="fill:#fff;fill-rule:nonzero;"/><path d="M219.885,69.73l-20.019,0l0,22.195l16.451,0l0,2.873l-16.451,0l0,27.94l20.019,0l0,2.872l-20.019,0l-2.872,0l0,-58.839l22.891,0l0,2.959Z" style="fill:#fff;fill-rule:nonzero;"/><path d="M236.249,66.771c1.741,0 3.38,0.319 4.918,0.957c1.537,0.638 2.872,1.523 4.004,2.655c1.131,1.131 2.03,2.452 2.698,3.96c0.667,1.509 1.001,3.134 1.001,4.874l0,33.946c0,1.741 -0.334,3.366 -1.001,4.874c-0.668,1.509 -1.567,2.829 -2.698,3.961c-1.132,1.131 -2.467,2.016 -4.004,2.654c-1.538,0.639 -3.177,0.958 -4.918,0.958l-9.139,0l-0.697,0l-2.176,0l0,-58.839l12.012,0Zm9.661,12.446c0,-1.334 -0.261,-2.582 -0.783,-3.742c-0.522,-1.161 -1.219,-2.176 -2.089,-3.047c-0.87,-0.87 -1.886,-1.552 -3.046,-2.045c-1.161,-0.493 -2.408,-0.74 -3.743,-0.74l-9.139,0l0,53.095l9.139,0c1.335,0 2.582,-0.247 3.743,-0.74c1.16,-0.494 2.176,-1.175 3.046,-2.046c0.87,-0.87 1.567,-1.886 2.089,-3.046c0.522,-1.161 0.783,-2.408 0.783,-3.743l0,-33.946Z" style="fill:#fff;fill-rule:nonzero;"/><path d="M286.819,89.401c2.437,0.871 4.439,2.365 6.006,4.483c1.567,2.118 2.35,4.54 2.35,7.268l0,12.011c0,1.741 -0.334,3.366 -1.001,4.874c-0.667,1.509 -1.567,2.829 -2.698,3.961c-1.132,1.131 -2.452,2.016 -3.96,2.654c-1.509,0.639 -3.134,0.958 -4.875,0.958l-11.315,0l-1.393,0l-1.479,0l0,-58.839l11.315,0c1.741,0 3.366,0.319 4.874,0.957c1.509,0.638 2.829,1.523 3.961,2.655c1.131,1.131 2.03,2.452 2.698,3.96c0.667,1.509 1.001,3.134 1.001,4.874c0,2.147 -0.493,4.106 -1.48,5.876c-0.986,1.769 -2.321,3.206 -4.004,4.308Zm-15.493,-19.758l0,19.062l8.791,0c1.277,-0.058 2.481,-0.334 3.612,-0.827c1.132,-0.493 2.118,-1.175 2.96,-2.045c0.841,-0.871 1.508,-1.872 2.002,-3.003c0.493,-1.132 0.739,-2.336 0.739,-3.613c0,-1.334 -0.261,-2.582 -0.783,-3.742c-0.522,-1.161 -1.218,-2.176 -2.089,-3.047c-0.87,-0.87 -1.886,-1.552 -3.046,-2.045c-1.161,-0.493 -2.408,-0.74 -3.743,-0.74l-8.443,0Zm20.977,31.509c0,-1.277 -0.247,-2.496 -0.74,-3.656c-0.493,-1.161 -1.161,-2.176 -2.002,-3.047c-0.841,-0.87 -1.842,-1.552 -3.003,-2.045c-1.16,-0.493 -2.408,-0.769 -3.743,-0.827l-2.698,0l-0.348,0l-8.443,0l0,31.161l11.315,0c1.335,0 2.582,-0.247 3.743,-0.74c1.161,-0.494 2.176,-1.175 3.046,-2.046c0.871,-0.87 1.567,-1.886 2.089,-3.046c0.523,-1.161 0.784,-2.408 0.784,-3.743l0,-12.011Z" style="fill:#fff;fill-rule:nonzero;"/><path d="M322.245,66.771l3.133,0l-11.402,29.245l-0.087,0.261l0,29.333l-2.873,0l0,-29.333l-0.087,-0.261l-11.402,-29.245l3.134,0l9.748,25.241l9.836,-25.241Z" style="fill:#fff;fill-rule:nonzero;"/></g><path d="M452.356,19.45c-45.211,0.55 -80.375,36.365 -79.528,81.607c0.826,44.356 37.908,78.868 82.091,77.911c42.842,-0.927 78.118,-37.33 77.585,-80.765c-0.537,-43.354 -36.249,-78.759 -79.197,-78.759c-0.317,0 -0.633,0.002 -0.951,0.006Zm-30.314,147.558c-45.125,-20.558 -58.407,-77.765 -26.357,-115.426c16.378,-19.246 37.679,-28.341 63.175,-26.594c0.123,0.255 0.248,0.509 0.376,0.763c-0.877,0.531 -1.749,1.067 -2.631,1.586c-12.416,7.357 -24.136,15.645 -34.666,25.562c-10.351,9.751 -18.849,20.546 -21.993,34.904c-2.149,9.826 -0.576,18.744 6.45,25.823c3.887,3.917 9.039,6.769 13.999,9.39c6.561,3.461 13.591,6.02 20.236,9.334c9.142,4.558 10.204,10.048 3.946,18c-5.276,6.701 -11.99,11.787 -18.846,16.676c-0.385,0.275 -0.982,0.393 -1.617,0.393c-0.731,0 -1.511,-0.157 -2.072,-0.411Zm34.802,-35.237c-7.595,-6.424 -15.595,-12.414 -23.754,-18.114c-11.72,-8.191 -16.187,-19.337 -12.368,-33.132c3.672,-13.266 12.787,-21.896 24.701,-27.891c12.497,-6.288 26.01,-8.296 39.797,-8.704c5.917,-0.175 11.853,0.264 17.78,0.424c-0.004,0.271 -0.007,0.539 -0.012,0.808c-4.077,0.916 -8.169,1.76 -12.231,2.764c-16.655,4.122 -31.889,10.939 -43.202,24.358c-3.081,3.654 -5.69,8.025 -7.329,12.501c-2.947,8.042 0.828,15.491 8.671,18.952c2.954,1.304 6.06,2.358 8.797,4.017c4.242,2.571 8.743,5.047 12.199,8.495c5.837,5.832 6.041,13.225 3.655,20.788c-1.393,4.434 -3.332,8.587 -6.391,12.74c-1.527,-7.566 -5.031,-13.542 -10.313,-18.006Zm-7.82,42.822c4.353,-4.224 8.27,-8.152 12.337,-11.917c1.357,-1.258 2.971,-2.566 4.694,-3.048c9.756,-2.747 18.482,-7.206 26.235,-13.835c22.451,-19.201 28.262,-51.714 13.219,-77.152c-3.389,-5.733 -8.007,-10.744 -12.115,-16.16c5.709,-0.945 11.756,-0.577 17.754,0.866c0.557,0.134 1.028,0.875 1.413,1.421c12.584,17.899 17.803,37.575 13.205,59.169c-7.179,33.712 -33.677,57.128 -68.039,60.622c-1.043,0.105 -2.093,0.139 -3.145,0.139c-1.857,0 -3.72,-0.105 -5.558,-0.105Zm19.817,-22.127c5.332,-6.736 8.183,-14.346 8.38,-22.971c0.166,-7.268 -1.842,-13.755 -7.804,-18.085c-4.697,-3.411 -10.055,-5.917 -15.151,-8.767c-2.546,-1.424 -5.239,-2.599 -7.735,-4.107c-3.128,-1.893 -4.013,-4.905 -3.468,-8.374c1.415,-9.012 6.51,-15.761 13.391,-21.335c8.383,-6.788 17.973,-11.386 28.09,-14.908c0.975,-0.341 2.621,0.245 3.564,0.934c24.053,17.505 26.226,53.033 14.988,73.07c-8.048,14.345 -20.033,23.379 -36.672,27.7c1.125,-1.47 1.761,-2.323 2.417,-3.157Z" style="fill:#fff;fill-rule:nonzero;"/><path d="M414.459,139.083c6.598,6.163 14.354,10.445 22.713,13.744c1.577,0.615 2.563,0.478 3.349,-1.049c1.292,-2.504 2.858,-4.886 3.905,-7.487c1.202,-2.972 0.098,-5.657 -2.319,-7.566c-1.742,-1.377 -3.731,-2.514 -5.752,-3.452c-6.918,-3.203 -13.961,-6.141 -20.84,-9.425c-5.82,-2.778 -11.436,-5.952 -15.865,-11.833c1.862,11.275 7.097,19.868 14.809,27.068Z" style="fill:#fff;fill-rule:nonzero;"/></g></svg>