<?xml version="1.0" encoding="UTF-8" standalone="no"?><!DOCTYPE svg PUBLIC "-//W3C//DTD SVG 1.1//EN" "http://www.w3.org/Graphics/SVG/1.1/DTD/svg11.dtd"><svg width="100%" height="100%" viewBox="0 0 1024 1024" version="1.1" xmlns="http://www.w3.org/2000/svg" xmlns:xlink="http://www.w3.org/1999/xlink" xml:space="preserve" xmlns:serif="http://www.serif.com/" style="fill-rule:evenodd;clip-rule:evenodd;stroke-linejoin:round;stroke-miterlimit:2;"><g><path d="M1024,512c0,-282.77 -229.23,-512 -512,-512c-282.77,0 -512,229.23 -512,512c0,255.554 187.231,467.37 432,505.78l0,-357.78l-130,0l0,-148l130,0l0,-112.8c0,-128.32 76.438,-199.2 193.39,-199.2c56.017,0 114.61,10 114.61,10l0,126l-64.562,0c-63.603,0 -83.438,39.467 -83.438,79.957l0,96.043l142,0l-22.7,148l-119.3,0l0,357.78c244.769,-38.41 432,-250.226 432,-505.78Z" style="fill:#fff;fill-rule:nonzero;"/></g></svg>