<?xml version="1.0" encoding="UTF-8" standalone="no"?><!DOCTYPE svg PUBLIC "-//W3C//DTD SVG 1.1//EN" "http://www.w3.org/Graphics/SVG/1.1/DTD/svg11.dtd"><svg width="100%" height="100%" viewBox="0 0 136 133" version="1.1" xmlns="http://www.w3.org/2000/svg" xmlns:xlink="http://www.w3.org/1999/xlink" xml:space="preserve" xmlns:serif="http://www.serif.com/" style="fill-rule:evenodd;clip-rule:evenodd;stroke-linejoin:round;stroke-miterlimit:2;"><rect id="Artboard1" x="0" y="0" width="135.746" height="132.395" style="fill:none;"/><clipPath id="_clip1"><rect x="0" y="0" width="135.746" height="132.395"/></clipPath><g clip-path="url(#_clip1)"><path d="M67.868,0.802c-37.479,0 -67.867,30.388 -67.867,67.875c0,29.988 19.446,55.425 46.417,64.405c3.396,0.62 4.633,-1.475 4.633,-3.275c0,-1.609 -0.058,-5.88 -0.091,-11.542c-18.88,4.1 -22.863,-9.1 -22.863,-9.1c-3.087,-7.842 -7.537,-9.929 -7.537,-9.929c-6.163,-4.209 0.466,-4.125 0.466,-4.125c6.813,0.479 10.396,6.996 10.396,6.996c6.054,10.37 15.888,7.375 19.754,5.637c0.617,-4.383 2.367,-7.375 4.309,-9.071c-15.071,-1.712 -30.917,-7.537 -30.917,-33.546c0,-7.408 2.646,-13.466 6.987,-18.212c-0.7,-1.717 -3.029,-8.617 0.663,-17.963c0,0 5.7,-1.825 18.667,6.959c5.412,-1.509 11.22,-2.259 16.991,-2.284c5.763,0.025 11.571,0.775 16.992,2.284c12.958,-8.784 18.646,-6.959 18.646,-6.959c3.704,9.346 1.375,16.246 0.675,17.963c4.35,4.746 6.979,10.804 6.979,18.212c0,26.075 -15.871,31.813 -30.992,33.492c2.438,2.096 4.609,6.238 4.609,12.571c0,9.071 -0.084,16.392 -0.084,18.617c0,1.816 1.221,3.929 4.667,3.266c26.95,-8.996 46.379,-34.416 46.379,-64.396c0,-37.487 -30.392,-67.875 -67.879,-67.875" style="fill:#fff;"/></g></svg>