<?xml version="1.0" encoding="UTF-8" standalone="no"?><!DOCTYPE svg PUBLIC "-//W3C//DTD SVG 1.1//EN" "http://www.w3.org/Graphics/SVG/1.1/DTD/svg11.dtd"><svg width="100%" height="100%" viewBox="0 0 199 199" version="1.1" xmlns="http://www.w3.org/2000/svg" xmlns:xlink="http://www.w3.org/1999/xlink" xml:space="preserve" xmlns:serif="http://www.serif.com/" style="fill-rule:evenodd;clip-rule:evenodd;stroke-linejoin:round;stroke-miterlimit:1.41421;"><g id="Capa-1" serif:id="Capa 1"><g><path d="M98.838,0.852c-55.752,0.679 -99.114,44.844 -98.07,100.634c1.019,54.697 46.747,97.256 101.232,96.076c52.83,-1.144 96.328,-46.034 95.673,-99.595c-0.663,-53.462 -44.702,-97.121 -97.663,-97.122c-0.391,0 -0.78,0.002 -1.172,0.007Zm-37.382,181.962c-55.645,-25.351 -72.024,-95.896 -32.501,-142.338c20.196,-23.733 46.465,-34.949 77.904,-32.794c0.151,0.315 0.306,0.628 0.462,0.94c-1.08,0.655 -2.156,1.316 -3.243,1.958c-15.31,9.07 -29.762,19.291 -42.749,31.52c-12.763,12.023 -23.243,25.336 -27.12,43.042c-2.65,12.117 -0.709,23.113 7.954,31.843c4.792,4.831 11.146,8.35 17.262,11.58c8.091,4.268 16.762,7.424 24.955,11.51c11.274,5.62 12.582,12.39 4.865,22.196c-6.505,8.263 -14.784,14.536 -23.239,20.566c-0.474,0.337 -1.212,0.483 -1.995,0.483c-0.901,0 -1.862,-0.193 -2.555,-0.506Zm42.917,-43.453c-9.366,-7.923 -19.231,-15.309 -29.292,-22.338c-14.453,-10.101 -19.961,-23.845 -15.253,-40.856c4.529,-16.359 15.769,-27.001 30.461,-34.394c15.412,-7.752 32.074,-10.23 49.075,-10.733c7.298,-0.215 14.616,0.327 21.927,0.524c-0.005,0.332 -0.01,0.663 -0.015,0.995c-5.028,1.131 -10.076,2.171 -15.084,3.409c-20.538,5.082 -39.324,13.49 -53.274,30.037c-3.8,4.505 -7.018,9.895 -9.038,15.416c-3.633,9.916 1.022,19.102 10.694,23.37c3.643,1.608 7.472,2.907 10.847,4.955c5.231,3.17 10.781,6.223 15.043,10.475c7.198,7.19 7.449,16.308 4.507,25.634c-1.716,5.466 -4.109,10.589 -7.881,15.709c-1.882,-9.328 -6.205,-16.698 -12.717,-22.203Zm-9.643,52.806c5.367,-5.209 10.197,-10.052 15.211,-14.696c1.676,-1.551 3.665,-3.164 5.79,-3.758c12.029,-3.388 22.791,-8.886 32.352,-17.061c27.684,-23.677 34.853,-63.772 16.3,-95.14c-4.179,-7.069 -9.872,-13.249 -14.94,-19.927c7.042,-1.166 14.498,-0.712 21.894,1.068c0.686,0.163 1.268,1.079 1.743,1.752c15.518,22.072 21.954,46.336 16.284,72.964c-8.854,41.573 -41.529,70.449 -83.903,74.756c-1.286,0.129 -2.581,0.171 -3.879,0.171c-2.289,0 -4.585,-0.129 -6.852,-0.129Zm24.437,-27.285c6.576,-8.307 10.091,-17.692 10.334,-28.327c0.204,-8.963 -2.272,-16.963 -9.624,-22.303c-5.791,-4.205 -12.4,-7.295 -18.684,-10.809c-3.14,-1.758 -6.461,-3.208 -9.537,-5.065c-3.858,-2.336 -4.95,-6.049 -4.278,-10.328c1.746,-11.112 8.03,-19.434 16.514,-26.308c10.339,-8.371 22.163,-14.04 34.637,-18.385c1.203,-0.421 3.234,0.304 4.395,1.152c29.663,21.587 32.343,65.397 18.484,90.107c-9.925,17.691 -24.704,28.828 -45.222,34.159c1.388,-1.814 2.172,-2.865 2.981,-3.893Z" style="fill:#fff;fill-rule:nonzero;"/><path d="M52.106,148.379c8.136,7.6 17.7,12.879 28.008,16.946c1.946,0.758 3.161,0.592 4.129,-1.293c1.595,-3.087 3.525,-6.024 4.817,-9.232c1.481,-3.665 0.122,-6.975 -2.86,-9.329c-2.149,-1.698 -4.602,-3.102 -7.094,-4.258c-8.531,-3.95 -17.216,-7.572 -25.699,-11.621c-7.175,-3.428 -14.1,-7.34 -19.562,-14.593c2.294,13.904 8.75,24.5 18.261,33.38Z" style="fill:#fff;fill-rule:nonzero;"/></g></g></svg>